<?xml version="1.0" encoding="UTF-8"?>
<svg xmlns="http://www.w3.org/2000/svg" xmlns:xlink="http://www.w3.org/1999/xlink" width="32px" height="32px" viewBox="0 0 32 32" version="1.1">
<g id="surface1">
<path style=" stroke:none;fill-rule:nonzero;fill:rgb(98.823529%,42.745098%,14.901961%);fill-opacity:1;" d="M 31.652344 18.078125 L 29.894531 12.664062 L 26.410156 1.941406 C 26.230469 1.386719 25.449219 1.386719 25.269531 1.941406 L 21.785156 12.664062 L 10.214844 12.664062 L 6.730469 1.941406 C 6.550781 1.386719 5.769531 1.386719 5.589844 1.941406 L 2.105469 12.664062 L 0.347656 18.078125 C 0.183594 18.570312 0.363281 19.113281 0.78125 19.417969 L 16 30.472656 L 31.21875 19.417969 C 31.636719 19.113281 31.816406 18.570312 31.652344 18.078125 "/>
<path style=" stroke:none;fill-rule:nonzero;fill:rgb(88.627451%,26.27451%,16.078431%);fill-opacity:1;" d="M 16 30.472656 L 21.785156 12.664062 L 10.214844 12.664062 Z M 16 30.472656 "/>
<path style=" stroke:none;fill-rule:nonzero;fill:rgb(98.823529%,42.745098%,14.901961%);fill-opacity:1;" d="M 16 30.472656 L 10.214844 12.664062 L 2.105469 12.664062 Z M 16 30.472656 "/>
<path style=" stroke:none;fill-rule:nonzero;fill:rgb(98.823529%,63.921569%,14.901961%);fill-opacity:1;" d="M 2.105469 12.664062 L 0.347656 18.078125 C 0.183594 18.570312 0.363281 19.113281 0.78125 19.417969 L 16 30.472656 Z M 2.105469 12.664062 "/>
<path style=" stroke:none;fill-rule:nonzero;fill:rgb(88.627451%,26.27451%,16.078431%);fill-opacity:1;" d="M 2.105469 12.664062 L 10.214844 12.664062 L 6.730469 1.941406 C 6.550781 1.386719 5.769531 1.386719 5.589844 1.941406 Z M 2.105469 12.664062 "/>
<path style=" stroke:none;fill-rule:nonzero;fill:rgb(98.823529%,42.745098%,14.901961%);fill-opacity:1;" d="M 16 30.472656 L 21.785156 12.664062 L 29.894531 12.664062 Z M 16 30.472656 "/>
<path style=" stroke:none;fill-rule:nonzero;fill:rgb(98.823529%,63.921569%,14.901961%);fill-opacity:1;" d="M 29.894531 12.664062 L 31.652344 18.078125 C 31.816406 18.570312 31.636719 19.113281 31.21875 19.417969 L 16 30.472656 Z M 29.894531 12.664062 "/>
<path style=" stroke:none;fill-rule:nonzero;fill:rgb(88.627451%,26.27451%,16.078431%);fill-opacity:1;" d="M 29.894531 12.664062 L 21.785156 12.664062 L 25.273438 1.941406 C 25.449219 1.386719 26.230469 1.386719 26.410156 1.941406 Z M 29.894531 12.664062 "/>
</g>
</svg>